<svg width="124" height="26" viewBox="0 0 124 26" xmlns="http://www.w3.org/2000/svg"><title>E14813D7-B65C-4718-940F-9EEB7FB935FE</title><g fill="#FFF" fill-rule="evenodd"><path d="M6.204 11.24h1.17c1.224 0 2.164-.25 2.818-.752.653-.503.981-1.225.981-2.166 0-.943-.328-1.665-.98-2.168-.655-.502-1.595-.753-2.819-.753h-1.17v5.84zm13.642 13.094h-7.723l-5.92-9.106v9.106H0V.66h9.654c1.33 0 2.49.194 3.482.58.99.388 1.808.917 2.454 1.586a6.708 6.708 0 0 1 1.454 2.323c.328.88.491 1.822.491 2.826 0 1.8-.438 3.26-1.312 4.38-.877 1.12-2.17 1.879-3.879 2.277l7.502 9.702zM32.347 5.872h-9.97V.66h19.592L28.296 24.333h-6.837zM35.152 21.32a3.65 3.65 0 0 1 2.264-3.393 3.744 3.744 0 0 1 1.44-.28 3.697 3.697 0 0 1 2.628 1.067c.337.334.6.726.79 1.176.19.451.286.927.286 1.43 0 .5-.096.978-.285 1.427a3.623 3.623 0 0 1-1.978 1.963 3.73 3.73 0 0 1-1.442.283 3.727 3.727 0 0 1-2.626-1.069 3.623 3.623 0 0 1-.791-1.177 3.642 3.642 0 0 1-.286-1.428M62.097 8.572c-1.435-1.738-3.208-2.606-5.318-2.606a6.54 6.54 0 0 0-2.579.502 6.278 6.278 0 0 0-2.042 1.366 6.284 6.284 0 0 0-1.345 2.056 6.697 6.697 0 0 0-.49 2.575c0 .941.162 1.811.49 2.607a6.33 6.33 0 0 0 1.361 2.071 6.348 6.348 0 0 0 2.043 1.381c.779.336 1.623.503 2.53.503 1.984 0 3.767-.837 5.35-2.512V23.8l-.633.221c-.95.334-1.836.58-2.66.738-.822.156-1.635.235-2.436.235-1.646 0-3.224-.31-4.732-.927a12.37 12.37 0 0 1-3.988-2.606c-1.15-1.119-2.074-2.449-2.77-3.987-.696-1.539-1.045-3.219-1.045-5.04 0-1.82.343-3.49 1.03-5.007.685-1.518 1.602-2.826 2.753-3.925A12.607 12.607 0 0 1 51.621.926 12.578 12.578 0 0 1 56.4 0c.948 0 1.882.1 2.8.3.918.197 1.883.506 2.896.924v7.348zM71.817 12.622c0 .941.179 1.81.538 2.605a6.541 6.541 0 0 0 3.593 3.438 6.854 6.854 0 0 0 2.58.487 6.86 6.86 0 0 0 2.578-.487A6.754 6.754 0 0 0 83.26 17.3a6.476 6.476 0 0 0 1.473-2.072 6.275 6.275 0 0 0 .537-2.605c0-.943-.18-1.81-.537-2.606a6.502 6.502 0 0 0-1.473-2.073 6.88 6.88 0 0 0-4.731-1.852c-.909 0-1.769.162-2.58.487a6.555 6.555 0 0 0-3.593 3.438 6.257 6.257 0 0 0-.538 2.606m-6.49 0c0-1.759.328-3.396.983-4.914a12.204 12.204 0 0 1 2.722-3.972c1.16-1.13 2.548-2.015 4.162-2.653 1.614-.639 3.391-.958 5.334-.958 1.92 0 3.691.32 5.317.958 1.624.638 3.022 1.522 4.193 2.653a12.174 12.174 0 0 1 2.74 3.972c.652 1.518.98 3.155.98 4.914 0 1.757-.328 3.396-.98 4.913a12.174 12.174 0 0 1-2.74 3.972c-1.171 1.13-2.57 2.014-4.193 2.653-1.626.638-3.398.958-5.317.958-1.943 0-3.72-.32-5.334-.958-1.614-.639-3.003-1.523-4.162-2.653a12.204 12.204 0 0 1-2.722-3.972c-.655-1.517-.983-3.156-.983-4.913M93.331 24.334L97.384.66h6.14l4.78 12.621L113.05.66h6.14l4.053 23.674h-6.173l-2.058-13.626-5.633 13.627h-2.47l-5.348-13.627-2.058 13.627z"/></g></svg>